<?xml version="1.0" standalone="no"?>
<!DOCTYPE svg PUBLIC "-//W3C//DTD SVG 20010904//EN"
 "http://www.w3.org/TR/2001/REC-SVG-20010904/DTD/svg10.dtd">
<svg version="1.0" xmlns="http://www.w3.org/2000/svg"
 width="1280.000000pt" height="378.000000pt" viewBox="0 0 1280.000000 378.000000"
 preserveAspectRatio="xMidYMid meet">
<metadata>
Created by potrace 1.16, written by Peter Selinger 2001-2019
</metadata>
<g transform="translate(0.000000,378.000000) scale(0.100000,-0.100000)"
fill="#000000" stroke="none">
<path d="M385 3696 c-153 -37 -276 -166 -304 -321 -15 -82 -15 -2887 0 -2971
30 -162 161 -292 329 -324 77 -15 11906 -14 11985 1 162 30 295 162 324 323
15 83 15 2889 0 2972 -29 158 -158 289 -317 323 -80 17 -11947 14 -12017 -3z
m3950 -591 c79 -41 87 -56 51 -94 l-29 -30 -39 32 c-37 30 -46 32 -117 32 -67
0 -81 -3 -118 -29 -88 -59 -118 -182 -68 -283 36 -72 89 -106 171 -111 103 -7
184 45 200 127 l7 31 -102 0 -101 0 0 40 0 40 144 0 c165 0 164 0 151 -88 -11
-75 -34 -119 -87 -167 -113 -101 -285 -100 -399 3 -78 70 -94 108 -94 227 0
84 4 107 22 141 31 57 116 131 172 149 73 23 167 15 236 -20z m2505 19 c41
-12 67 -29 110 -72 66 -66 90 -124 90 -217 0 -93 -24 -151 -90 -217 -62 -62
-124 -88 -209 -88 -238 0 -382 277 -248 477 34 51 108 107 161 122 49 14 128
12 186 -5z m-1920 -39 l0 -45 -130 0 -130 0 0 -80 0 -80 120 0 120 0 0 -45 0
-45 -120 0 -120 0 0 -80 0 -80 130 0 130 0 0 -45 0 -45 -175 0 -175 0 0 295 0
295 175 0 175 0 0 -45z m470 0 l0 -45 -80 0 -80 0 0 -250 0 -250 -45 0 -45 0
0 250 0 250 -80 0 -80 0 0 45 0 45 205 0 205 0 0 -45z m350 -250 l0 -295 -45
0 -45 0 0 295 0 295 45 0 45 0 0 -295z m480 250 l0 -45 -75 0 -75 0 -2 -247
-3 -248 -45 0 -45 0 -3 248 -2 247 -75 0 -75 0 0 45 0 45 200 0 200 0 0 -45z
m1137 -161 l128 -205 3 205 2 206 45 0 45 0 0 -295 0 -295 -44 0 -44 0 -133
214 -134 215 -3 -215 -2 -214 -45 0 -45 0 0 295 0 295 50 0 49 0 128 -206z
m-5282 -359 c512 -290 947 -539 968 -552 99 -62 101 -176 3 -242 -68 -45 -471
-271 -485 -271 -8 0 -99 88 -204 196 l-190 196 -586 -586 c-322 -322 -589
-586 -593 -586 -4 0 -15 15 -25 33 -17 30 -18 97 -18 1137 0 1062 1 1106 19
1143 25 51 58 68 126 64 52 -3 107 -33 985 -532z m2590 -415 c82 -21 176 -69
235 -119 l35 -30 -59 -60 -60 -60 -30 23 c-274 208 -662 51 -717 -290 -48
-298 214 -563 511 -517 174 27 293 132 329 291 l9 42 -204 0 -204 0 0 85 0 85
290 0 290 0 0 -97 c0 -183 -53 -317 -167 -423 -114 -107 -235 -153 -403 -153
-189 -1 -321 53 -456 188 -124 123 -184 263 -184 430 1 245 143 464 370 568
129 59 278 72 415 37z m3313 -612 l-3 -593 -85 0 -85 0 -3 580 c-1 319 0 586
3 593 3 8 31 12 90 12 l85 0 -2 -592z m1697 582 c176 -29 309 -167 323 -335
14 -181 -116 -343 -306 -384 -29 -6 -113 -11 -187 -11 l-135 0 -2 -222 -3
-223 -85 0 -85 0 -3 593 -2 592 212 0 c117 0 240 -5 273 -10z m595 -585 l0
-595 -85 0 -85 0 0 595 0 595 85 0 85 0 0 -595z m560 175 c98 -26 194 -117
220 -208 5 -21 10 -150 10 -294 l0 -258 -85 0 -85 0 0 41 0 42 -44 -41 c-159
-147 -444 -49 -473 163 -9 71 13 131 71 191 101 103 271 130 429 69 22 -9 23
24 2 65 -50 97 -223 117 -300 35 l-31 -33 -72 31 c-40 16 -72 36 -72 44 0 23
82 104 132 129 82 41 195 50 298 24z m-5107 -22 c74 -35 157 -113 190 -181
141 -289 -77 -611 -395 -584 -132 11 -255 91 -316 205 -84 158 -58 352 64 476
85 86 169 117 304 113 78 -2 105 -8 153 -29z m889 -6 c342 -168 274 -679 -100
-752 -346 -68 -602 303 -419 609 73 122 194 183 358 178 84 -2 103 -6 161 -35z
m787 23 c23 -8 57 -26 76 -41 l35 -26 0 31 0 31 85 0 85 0 0 -388 c0 -236 -4
-412 -11 -448 -21 -115 -89 -213 -179 -259 -103 -52 -246 -57 -347 -11 -90 42
-216 178 -188 205 6 5 39 21 75 35 57 23 65 24 73 11 21 -39 75 -90 112 -106
79 -36 179 -19 235 40 42 44 60 97 60 174 l0 56 -50 -34 c-170 -114 -405 -34
-507 173 -36 72 -38 80 -37 171 1 109 15 158 71 239 41 59 112 116 181 143 58
22 173 25 231 4z m1194 -14 c66 -32 138 -108 176 -185 34 -70 37 -82 19 -89
-184 -74 -505 -211 -511 -217 -5 -4 6 -25 25 -45 84 -96 221 -100 316 -10 l46
43 63 -42 c34 -22 63 -46 63 -52 0 -7 -27 -37 -60 -67 -126 -117 -305 -138
-463 -54 -292 154 -256 632 56 733 68 22 212 14 270 -15z m2777 -245 c57 -140
107 -253 110 -251 4 2 51 117 105 255 l99 250 98 0 98 0 -23 -52 c-13 -29
-122 -279 -242 -555 l-218 -503 -89 0 c-48 0 -88 3 -88 8 0 4 38 93 85 197
l86 190 -156 354 c-85 194 -155 355 -155 357 0 2 42 4 93 4 l94 0 103 -254z"/>
<path d="M6655 3032 c-77 -37 -115 -103 -115 -199 1 -136 92 -222 226 -211
188 16 253 281 95 393 -54 38 -145 46 -206 17z"/>
<path d="M9370 1760 l0 -200 145 0 c189 0 238 19 286 112 37 73 18 178 -43
235 -47 44 -88 53 -243 53 l-145 0 0 -200z"/>
<path d="M10690 1304 c-92 -18 -140 -59 -140 -123 0 -59 57 -101 139 -101 86
0 191 87 194 161 2 28 -2 33 -36 45 -45 16 -121 24 -157 18z"/>
<path d="M5501 1560 c-141 -35 -214 -212 -143 -351 106 -210 398 -148 419 89
6 70 -8 127 -46 179 -48 66 -151 103 -230 83z"/>
<path d="M6385 1561 c-105 -26 -174 -117 -175 -230 0 -74 17 -124 59 -172 131
-154 369 -68 388 140 11 119 -54 225 -158 255 -57 17 -68 18 -114 7z"/>
<path d="M7265 1561 c-43 -11 -86 -35 -112 -63 -56 -59 -78 -170 -52 -261 13
-49 73 -115 124 -138 112 -51 248 12 284 130 16 54 14 155 -5 199 -17 42 -67
97 -104 117 -34 17 -99 25 -135 16z"/>
<path d="M8359 1542 c-62 -32 -107 -95 -116 -163 -6 -38 -4 -42 13 -35 10 3
92 37 181 73 155 64 162 68 150 88 -19 29 -95 65 -138 65 -21 0 -60 -12 -90
-28z"/>
</g>
</svg>
