<svg xmlns="http://www.w3.org/2000/svg" width="512" height="512"><linearGradient id="a" x1="440.448" x2="68.448" y1="758.998" y2="-281.002" gradientUnits="userSpaceOnUse"><stop offset=".002" stop-color="#ffc599"/><stop offset=".992" stop-color="#ffe8dc" stop-opacity="0"/></linearGradient><path fill="url(#a)" d="M512 189.63c0-77.2-114.61-139.8-256-139.8S0 112.44 0 189.64c0 12.48 3 24.58 8.62 36.1 10 20.48 12.5 43.82 7.54 66.08-2.04 9.14-3.18 18.6-3.34 28.3-1.23 77.82 61.96 142.06 139.8 142.06 58.43 0 108.5-35.86 129.37-86.78 11.46-27.96 35.56-48.92 65.15-55.08C443.53 300.25 512 249.3 512 189.64z"/><path fill="#00c" d="M368.04 95.65c-8.27 0-14.97 6.7-14.97 14.96 0 2.32.54 4.5 1.47 6.44l-79.23 79.23a5.003 5.003 0 000 7.07c.98.98 2.26 1.46 3.54 1.46s2.56-.48 3.54-1.46l79.23-79.23c1.96.94 4.13 1.48 6.44 1.48 8.26 0 14.96-6.7 14.96-14.97s-6.7-14.95-14.96-14.95zm22.82 210.2c-6.33 0-12.43 1-18.16 2.8V207.94h53.9c2.75 0 5-2.24 5-5v-22.45c0-16.4-13.16-29.7-29.5-30h.6-122.3v-37.64c0-5.52-4.47-10-10-10H71.2c-5.53 0-10 4.48-10 10v145c0 5.5 4.47 10 10 10h117.64V370h-55.07c-2.77 0-5 2.24-5 5v44.52c0 16.57 13.43 30 30 30h183.86-.06.13c15.43 0 28.15-11.66 29.8-26.66 5.8 1.86 11.96 2.87 18.36 2.87 33.1 0 59.94-26.84 59.94-59.94 0-33.1-26.83-59.95-59.94-59.95z" opacity=".1"/><path fill="#ff9d33" d="M431.6 181.93v-22.45c0-16.57-13.44-30-30-30h-51.47v57.45h76.46c2.75 0 5-2.24 5-5z"/><path fill="#ff8b00" d="M431.6 159.48v14.85c0-16.56-13.43-30-30-30h-51.46v-14.85h51.46c16.57 0 30 13.43 30 30z"/><path fill="#fff" d="M402.7 129.47c-16.57 0-30 13.43-30 30v239.05c0 16.57-13.44 30-30 30H188.84V159.47c0-16.57 13.43-30 30-30z"/><path fill="#ebebff" d="M322.54 203.94h-42.2c-2.75 0-5-2.24-5-5v-42.2c0-2.76 2.25-5 5-5h42.2c2.76 0 5 2.24 5 5v42.2c0 2.76-2.24 5-5 5z"/><circle cx="308.614" cy="353.801" r="36.513" fill="#ebebff"/><path fill="#ebebff" d="M280.4 129.47v124.36c0 5.53-4.47 10-10 10h-81.56V159.47c0-16.57 13.43-30 30-30z"/><path fill="#ff9d33" d="M312.63 398.52V354c0-2.76-2.24-5-5-5H133.77c-2.77 0-5 2.24-5 5v44.52c0 16.57 13.43 30 30 30h183.86c-16.57 0-30-13.43-30-30z"/><path fill="#ffab66" d="M270.4 246.83H71.2c-5.53 0-10-4.48-10-10v-145c0-5.5 4.47-10 10-10h199.2c5.53 0 10 4.5 10 10v145c0 5.52-4.47 10-10 10z"/><path fill="#b3b3ff" d="M303.6 306.97h-84.5c-2.75 0-5-2.24-5-5s2.25-5 5-5h84.5c2.78 0 5 2.24 5 5s-2.22 5-5 5z"/><path fill="#ff9d33" d="M237.6 279.9h-18.5c-2.75 0-5-2.24-5-5s2.25-5 5-5h18.5c2.78 0 5 2.24 5 5s-2.22 5-5 5z"/><path fill="#b3b3ff" d="M339.6 327.1H219.1c-2.75 0-5-2.25-5-5s2.25-5 5-5h120.5c2.78 0 5 2.23 5 5s-2.22 5-5 5z"/><path fill="#ff2c2c" d="M326.37 206.65c-9.16 0-16.6-7.46-16.6-16.62s7.44-16.6 16.6-16.6 16.62 7.44 16.62 16.6-7.47 16.62-16.63 16.62zm0-23.23c-3.64 0-6.6 2.97-6.6 6.6s2.96 6.63 6.6 6.63 6.62-2.97 6.62-6.62-2.98-6.6-6.63-6.6zM338 218.26c-2.78 0-5-2.24-5-5 0-3.64-2.98-6.6-6.63-6.6s-6.6 2.95-6.6 6.6c0 2.76-2.25 5-5 5s-5-2.24-5-5c0-9.16 7.44-16.6 16.6-16.6S343 204.1 343 213.25c0 2.76-2.25 5-5 5z"/><circle cx="337.985" cy="235.204" r="5.59" fill="#ff9d33"/><circle cx="87.8" cy="107.438" r="5.59" fill="#fff"/><g fill="#ff9d33"><circle cx="337.985" cy="252.114" r="5.59"/><path d="M343.57 269.02c0 3.1-2.5 5.6-5.6 5.6s-5.58-2.5-5.58-5.6 2.5-5.6 5.6-5.6 5.58 2.52 5.58 5.6"/><circle cx="390.862" cy="344.791" r="59.94"/></g><circle cx="390.862" cy="344.791" r="42.384" fill="#fff"/><path fill="#ff7300" d="M396.66 367.76h-16c-2.76 0-5-2.24-5-5s2.24-5 5-5h16c2.2 0 3.98-1.8 3.98-4s-1.78-3.97-3.98-3.97h-11.6c-7.7 0-13.98-6.28-13.98-14 0-7.7 6.27-13.97 13.98-13.97h16c2.76 0 5 2.24 5 5s-2.24 5-5 5h-16c-2.2 0-3.98 1.78-3.98 3.98s1.8 4 3.98 4h11.6c7.7 0 13.98 6.26 13.98 13.97 0 7.7-6.27 14-13.98 14zm-5.8 6.68c-2.76 0-5-2.23-5-5v-49.3c0-2.77 2.24-5 5-5s5 2.23 5 5v49.3c0 2.77-2.24 5-5 5z"/><circle cx="139.387" cy="168.25" r="14.964" fill="#4d4dff"/><circle cx="177.292" cy="205.15" r="14.964" fill="#ff4d4d"/><circle cx="242.182" cy="141.387" r="14.964" fill="#4d4dff"/><circle cx="279.148" cy="179.012" r="14.964" fill="#ff4d4d"/><circle cx="368.036" cy="89.613" r="14.964" fill="#4d4dff"/><path fill="#00c" d="M218.02 371.6a5.003 5.003 0 00-7.07 0l-10 10a4.985 4.985 0 000 7.07 5.003 5.003 0 007.07 0l6.46-6.47 6.47 6.47c.97.98 2.25 1.46 3.53 1.46s2.56-.48 3.54-1.46a5.003 5.003 0 000-7.07zm172.84-91.75c-35.8 0-64.94 29.13-64.94 64.94 0 27.3 16.96 50.7 40.88 60.3-2.92 10.67-12.8 18.42-24.1 18.42h-.07c-13.8 0-25-11.2-25-25V354c0-5.5-4.5-10-10-10h-113.8v-92.18h76.57c8.27 0 15-6.72 15-15v-38.86c7.95-2.63 13.7-10.13 13.7-18.95 0-3.8-1.1-7.38-2.96-10.42l34.1-34.1h47.98c-6.5 6.35-10.53 15.2-10.53 25v95.45c0 2.76 2.23 5 5 5s5-2.24 5-5v-63h48.9c5.5 0 10-4.5 10-10v-22.45c0-18.8-14.92-34.2-33.53-34.97-.13 0-.25-.02-.38-.02h-62.46l17.68-17.68c2.97 1.75 6.42 2.78 10.12 2.78 11 0 19.96-8.96 19.96-19.97s-8.96-19.95-19.96-19.95-19.97 8.96-19.97 19.96c0 3.7 1.03 7.16 2.78 10.13l-24.75 24.75h-40.7V91.84c0-8.27-6.73-15-15-15H71.2c-8.27 0-15 6.73-15 15v145c0 8.26 6.73 15 15 15h83.63c2.77 0 5-2.25 5-5s-2.23-5-5-5H71.2c-2.76 0-5-2.26-5-5v-145c0-2.76 2.24-5 5-5h199.2c2.76 0 5 2.24 5 5v67.57c-2.3.46-4.47 1.3-6.42 2.47l-9.9-9.9a19.84 19.84 0 003.07-10.58c0-11.02-8.96-19.98-19.97-19.98s-19.96 8.96-19.96 19.97c0 3.6.98 6.98 2.66 9.9l-36.97 36.97c-3.07-1.94-6.7-3.08-10.6-3.08-3.96 0-7.64 1.16-10.74 3.15l-10-10c1.77-2.96 2.8-6.4 2.8-10.1 0-11-8.96-19.96-19.97-19.96s-19.97 8.94-19.97 19.95c0 3.7 1.02 7.14 2.78 10.1l-32.77 32.8c-1.96 1.94-1.96 5.1 0 7.06.97 1 2.25 1.48 3.53 1.48s2.56-.5 3.54-1.47l32.78-32.77c2.97 1.76 6.42 2.78 10.1 2.78s7.15-1 10.12-2.77l10.23 10.23c-1.53 2.83-2.4 6.06-2.4 9.5 0 11 8.96 19.95 19.96 19.95s19.96-8.94 19.96-19.95c0-3.48-.9-6.75-2.48-9.6l37.1-37.1c3 1.83 6.53 2.9 10.3 2.9 3.5 0 6.78-.9 9.65-2.5l10.1 10.1c-1.73 2.97-2.74 6.4-2.74 10.06 0 9.74 6.98 17.85 16.2 19.6v38.22c0 2.76-2.24 5-5 5h-81.56c-2.66 0-4.8 2.08-4.97 4.7h-.03V344h-50.07c-5.52 0-10 4.5-10 10v44.52c0 19.3 15.7 35 35 35H342.7c15.7 0 29.45-10.67 33.67-25.44 4.66 1.06 9.5 1.65 14.5 1.65 35.8 0 64.93-29.13 64.93-64.94s-29.13-64.95-64.94-64.95zm11.28-145.36c13.54.3 24.45 11.38 24.45 24.98v22.45h-48.9v-22.45c0-13.6 10.9-24.7 24.44-25zm-34.1-54.85c5.5 0 9.96 4.47 9.96 9.96 0 5.5-4.47 9.98-9.96 9.98-5.5 0-9.97-4.47-9.97-9.97 0-5.48 4.47-9.95 9.97-9.95zm-51.94 54.83l-27.16 27.16c-1.12-.64-2.3-1.16-3.54-1.57v-25.6zM139.4 178.2c-5.5 0-9.98-4.46-9.98-9.95 0-5.5 4.47-9.96 9.97-9.96s9.95 4.46 9.95 9.95c0 5.5-4.47 9.96-9.96 9.96zm37.9 36.9c-5.5 0-9.97-4.46-9.97-9.95s4.47-9.97 9.96-9.97 9.95 4.47 9.95 9.97-4.46 9.96-9.96 9.96zm54.92-73.7c0-5.5 4.47-9.98 9.96-9.98s9.96 4.47 9.96 9.97-4.47 9.95-9.96 9.95-9.96-4.47-9.96-9.96zm36.96 37.6c0-5.48 4.47-9.95 9.97-9.95s9.96 4.47 9.96 9.96-4.46 9.98-9.95 9.98-9.97-4.47-9.97-9.97zm-110.4 244.53c-13.8 0-25-11.22-25-25V354h173.85v44.52c0 9.8 4.03 18.65 10.52 25zm232.08-23.8c-30.3 0-54.94-24.65-54.94-54.94s24.65-54.95 54.94-54.95 54.94 24.65 54.94 54.94-24.64 54.93-54.94 54.93z"/><path fill="#ff7300" d="M196.24 133.07h-85.78c-2.76 0-5-2.24-5-5s2.24-5 5-5h85.78c2.76 0 5 2.24 5 5s-2.24 5-5 5zm-71.16-20.23h-12.5c-2.76 0-5-2.24-5-5s2.24-5 5-5h12.5c2.76 0 5 2.24 5 5s-2.24 5-5 5zm50.72 0h-33.5c-2.76 0-5-2.24-5-5s2.24-5 5-5h33.5c2.76 0 5 2.24 5 5s-2.24 5-5 5z"/><path fill="#6c6cff" d="M146.47 303.93c-1.28 0-2.56-.5-3.54-1.46a5.003 5.003 0 010-7.07l10-10a4.985 4.985 0 017.07 0 4.985 4.985 0 010 7.07l-10 10c-.97.97-2.25 1.46-3.53 1.46zM308.24 77.47a4.98 4.98 0 01-3.54-1.46c-1.95-1.94-1.95-5.1 0-7.06l10-10a5.003 5.003 0 017.07 0 5.003 5.003 0 010 7.07l-10 10c-.97 1-2.25 1.47-3.54 1.47z"/><path fill="#ff9d33" d="M428.73 231.52c-1.28 0-2.56-.5-3.53-1.46l-6.47-6.47-6.46 6.46a5.003 5.003 0 01-7.07 0 5.003 5.003 0 010-7.07l10-10a4.968 4.968 0 017.07 0l10 10c1.95 1.94 1.95 5.1 0 7.06-.98.97-2.26 1.46-3.54 1.46z"/><path fill="#ff6c6c" d="M112.36 327.65c-1.28 0-2.56-.5-3.53-1.47l-6.47-6.46-6.46 6.46a4.985 4.985 0 01-7.07 0 4.985 4.985 0 010-7.07l10-10a5.022 5.022 0 017.07 0l10 10c1.95 1.97 1.95 5.13 0 7.08a4.99 4.99 0 01-3.54 1.47z"/><path fill="#ff9d33" d="M85.83 400.3a4.97 4.97 0 01-3.54-1.45l-6.47-6.46-6.47 6.45a5.003 5.003 0 01-7.07 0 4.985 4.985 0 010-7.07l10-10a4.991 4.991 0 017.06 0l10 10a4.985 4.985 0 010 7.07 4.94 4.94 0 01-3.53 1.46z"/></svg>