<svg xmlns="http://www.w3.org/2000/svg" width="512" height="512"><linearGradient id="a" x1="223.035" x2="307.035" y1="-174.119" y2="921.881" gradientUnits="userSpaceOnUse"><stop offset=".002" stop-color="#ffc599"/><stop offset=".992" stop-color="#ffe8dc" stop-opacity="0"/></linearGradient><path fill="url(#a)" d="M512 256c0-27.63-12.5-53.53-34.35-75.84a206.75 206.75 0 01-37.51-52.75C409.25 65.2 356.59 24.21 296.8 24.21c-42.48 0-81.36 20.7-111.4 55-19.88 22.72-44.98 40.13-72.99 51.38C44.58 157.83 0 203.83 0 256s44.58 98.17 112.41 125.41c28.01 11.25 53.11 28.66 73 51.37 30.03 34.3 68.91 55 111.4 55 59.78 0 112.44-40.98 143.33-103.2a206.75 206.75 0 0137.51-52.74C499.5 309.54 512 283.64 512 256z"/><path fill="#00c" d="M259.12 100.19c-102.67 0-185.9 83.23-185.9 185.9a185.9 185.9 0 007.6 52.78 78.94 78.94 0 10104.7 117.99 185.28 185.28 0 0073.6 15.15c102.68 0 185.91-83.24 185.91-185.91s-83.23-185.91-185.9-185.91z" opacity=".1"/><circle cx="259.121" cy="265.097" r="185.91" fill="#6c6cff"/><ellipse cx="287.788" cy="376.386" fill="#4d4dff" rx="34.9" ry="13.703"/><path fill="#ff9d33" d="M366.26 137.96l-3.8 22.9a3.64 3.64 0 01-1.74 2.53l-21.04 12.4-30.16 17.41c-.55.32-1 .78-1.33 1.33l-18 31.12a3.64 3.64 0 00-.24 3.16l6.19 15.61c.03.08.06.15.1.23l5.07 10.65a3.64 3.64 0 01-1.3 4.61l-15.67 10.2a3.64 3.64 0 00-1.66 3.04v13.91c0 1.8-1.3 3.32-3.08 3.6l-9.8 1.52a3.64 3.64 0 00-2.5 1.64l-10.52 16.42c-.4.61-.95 1.09-1.61 1.38l-16.3 7.09c-.38.16-.78.26-1.19.3l-29.66 2.12c-1.15.09-2.2.72-2.82 1.7l-15.06 24.11c-.3.48-.71.89-1.2 1.18l-7.87 4.78c-1.16.7-2.62.7-3.78 0l-18.09-11.02a3.64 3.64 0 01-1.57-2l-7.37-23.2c-.3-.96-1-1.75-1.91-2.18l-17.07-8.07a3.64 3.64 0 01-2-2.48l-2.4-10.62c-.13-.59-.12-1.2.04-1.77l7.86-28.5c.16-.58.17-1.19.04-1.77l-3.3-14.64a3.64 3.64 0 01.47-2.75l6.19-9.73c.37-.58.57-1.26.57-1.95v-32.48c0-.96.38-1.89 1.06-2.57l11.55-11.55a3.64 3.64 0 000-5.14l-3.62-3.62a3.64 3.64 0 00-2.57-1.06h-29.03c-.3 0-.61-.04-.9-.12l-11.98-3.08a3.64 3.64 0 01-2.18-5.45c32.79-52.8 91.3-87.96 158.04-87.96 6.8 0 13.54.37 20.16 1.08 1.15.12 2.17.8 2.75 1.8l14.85 25.7a3.63 3.63 0 001.86 1.59l65.22 24.6a3.64 3.64 0 012.3 4z"/><ellipse cx="191.742" cy="156.466" fill="#ff8b00" rx="34.9" ry="13.703"/><path fill="#ff9d33" d="M346.4 264.57l-9.93 5.7a3.64 3.64 0 00-1.24 5.13l8.12 12.57c.5.76 1.26 1.32 2.14 1.55l15.3 3.97a3.64 3.64 0 003.8-1.31l18.54-24.24c.9-1.17 1-2.76.25-4.04l-2.1-3.61a3.64 3.64 0 00-5.3-1.1l-.9.67a3.64 3.64 0 01-5.7-3.83 3.64 3.64 0 00-2.17-4.3l-6.38-2.55a3.64 3.64 0 00-4.36 1.32l-8.88 12.98c-.3.44-.72.82-1.19 1.1zm49.11-27.69l10.05-3.18a3.63 3.63 0 013.18.49l9.05 6.31a3.64 3.64 0 011.4 4.01l-2.01 6.87a3.64 3.64 0 01-6.27 1.33l-4.63-5.47a3.64 3.64 0 00-2.56-1.27l-6.1-.37a3.64 3.64 0 01-2.7-1.44l-1.22-1.62c-1.5-2-.58-4.9 1.81-5.66z"/><path fill="#ff2c2c" d="M231.02 80.29c0 15.41-19.85 49.74-31.32 68.31a9.35 9.35 0 01-15.91 0c-11.48-18.57-31.32-52.9-31.32-68.31a39.28 39.28 0 0178.55 0z"/><circle cx="191.048" cy="79.187" r="14.257" fill="#fff"/><path fill="#ff2c2c" d="M327.06 300.2c0 15.43-19.84 49.75-31.32 68.32a9.35 9.35 0 01-15.9 0c-11.49-18.57-31.33-52.9-31.33-68.31a39.28 39.28 0 0178.56 0z"/><circle cx="287.095" cy="299.107" r="14.257" fill="#fff"/><circle cx="130.91" cy="378.878" r="78.942" fill="#fff"/><g fill="#ff8b00"><path d="M117.32 395.18a5 5 0 01-4.76-3.46l-14.03-43.4H88.05a5 5 0 010-10h14.12a5 5 0 014.76 3.46l15.14 46.86a5 5 0 01-4.75 6.54z"/><path d="M161.76 395.18H109.7a5 5 0 010-10h47.88l4.22-23.63h-52.1a5 5 0 010-10h58.07a5 5 0 014.92 5.88l-6 33.63a5 5 0 01-4.93 4.12zm-41.51 30.26a12.91 12.91 0 010-25.8 12.9 12.9 0 010 25.8zm0-15.8a2.9 2.9 0 100 5.8 2.9 2.9 0 000-5.8zm36.79 15.8a12.91 12.91 0 010-25.8c7.11 0 12.9 5.8 12.9 12.9 0 7.11-5.79 12.9-12.9 12.9zm0-15.8a2.9 2.9 0 10.01 5.8 2.9 2.9 0 000-5.8z"/></g><path fill="#00c" d="M450.03 265.1a5 5 0 00-5-5h-.11c-.38 0-.77.03-1.16.12a758.55 758.55 0 01-69.68 12.4c.06-2.5.1-5 .1-7.52 0-50.54-11.7-98.14-32.94-134a166.9 166.9 0 00-7.48-11.57c7.83-2.22 15.03-4.8 21.42-7.73a181.09 181.09 0 0182.2 122.22 5 5 0 009.85-1.7 190.98 190.98 0 00-211.46-156.7 44.34 44.34 0 00-44.03-39.61 44.33 44.33 0 00-44.28 44.28c0 6.34 2.83 15.23 7.16 25.14-52 34.15-86.4 92.95-86.4 159.67 0 6.9.38 13.93 1.13 20.9a5 5 0 009.95-1.09c-.5-4.53-.81-9.08-.97-13.6 21.5 4.7 43.6 8.52 66.22 11.45.25 4.53.6 9.03 1.04 13.49a84 84 0 00-14.68-1.31c-46.28 0-83.94 37.65-83.94 83.94s37.66 83.94 83.94 83.94c21.3 0 40.75-7.98 55.56-21.1a189.96 189.96 0 0072.65 14.29c35.9 0 69.52-9.97 98.24-27.28a5 5 0 001.49-.9c54.65-33.62 91.18-94 91.18-162.73zm-10.12 6.22c-2.1 61.92-35.47 116.04-84.79 147.04a149.86 149.86 0 00-21.36-7.7c2.58-3.65 5.08-7.5 7.48-11.56 18.75-31.66 30.05-72.46 32.45-116.35a773.53 773.53 0 0066.22-11.43zM206.2 415.97a293.33 293.33 0 0147.93-4.58v34.4c-17.74-1.44-34.74-10.56-49.7-26.43a84.6 84.6 0 001.77-3.4zM154.07 265.1c0-42.72 8.61-83.12 24.41-115.58.35.57.7 1.15 1.05 1.71 2.64 4.26 7.2 6.8 12.21 6.8 5.01 0 9.57-2.54 12.2-6.8a529.62 529.62 0 0014.56-24.93 315.63 315.63 0 0035.62 2.5v142.7a44.45 44.45 0 00-5.64 8.37 883.6 883.6 0 01-94.28-6c-.09-2.91-.13-5.84-.13-8.77zM264.12 84.4c18.69 1.51 36.56 11.55 52.09 29.02-15.85 3.21-33.7 5.1-52.09 5.38zm-29.41 4.76a64.4 64.4 0 0119.41-4.75v34.4a306.88 306.88 0 01-30.63-2.01c5.08-10.1 9.22-19.76 11.22-27.64zm53.08 176.77a34.32 34.32 0 0134.28 34.28c0 10.31-11.15 34.25-30.58 65.68a4.3 4.3 0 01-3.7 2.07c-.73 0-2.55-.2-3.7-2.07-19.43-31.43-30.58-55.37-30.58-65.68a34.31 34.31 0 0134.28-34.28zm-23.67 145.46c18.4.29 36.24 2.17 52.09 5.38-15.53 17.47-33.4 27.5-52.09 29.03zm0-10V351.8c3.78 6.7 7.71 13.28 11.46 19.35 2.64 4.26 7.2 6.8 12.2 6.8 5.02 0 9.58-2.54 12.22-6.8 14.63-23.66 32.06-55.18 32.06-70.94 0-4.52-.68-8.88-1.94-12.99a859.3 859.3 0 0033.48-3.24c-2.5 41.62-13.27 80.15-30.96 110.03a157.52 157.52 0 01-9.3 14c-17.7-4.01-37.94-6.31-59.22-6.62zm68.52-265.2c20.34 34.35 31.54 80.13 31.54 128.9 0 2.94-.05 5.87-.13 8.78a852.56 852.56 0 01-38.25 3.65 44.3 44.3 0 00-38.01-21.59 44 44 0 00-23.67 6.89V128.8c21.28-.3 41.53-2.6 59.21-6.62 3.23 4.33 6.34 9 9.3 14zm11.67-30.69c-5.24 2-10.98 3.81-17.12 5.4a118.08 118.08 0 00-21.45-20.6 181.17 181.17 0 0138.57 15.2zM191.74 46.01a34.32 34.32 0 0134.28 34.28c0 10.3-11.15 34.25-30.58 65.68a4.3 4.3 0 01-3.7 2.07 4.3 4.3 0 01-3.7-2.07c-19.43-31.43-30.57-55.37-30.57-65.68A34.32 34.32 0 01191.74 46zM78.28 261.06c1.34-61.04 33.06-114.7 80.6-146.48a394.16 394.16 0 0013.5 24.8c-18.3 34.76-28.31 78.97-28.31 125.72 0 2.51.03 5.02.09 7.51a762.98 762.98 0 01-65.88-11.55zM154.65 284a892.05 892.05 0 0090.1 5.83c-.8 3.33-1.24 6.8-1.24 10.38 0 7.9 4.4 19.77 10.61 32.63v68.55c-15.2.23-29.86 1.47-43.46 3.63a83.57 83.57 0 004.2-26.14c0-37.58-24.83-69.47-58.95-80.14-.53-4.87-.96-9.78-1.26-14.74zm-97.68 94.88c0-40.77 33.17-73.94 73.94-73.94s73.94 33.17 73.94 73.94-33.17 73.94-73.94 73.94-73.94-33.17-73.94-73.94zM194.13 434a84.45 84.45 0 004.76-5.97c4.43 4.52 9.03 8.52 13.78 11.97a177.92 177.92 0 01-18.54-6zm133.07-14.7a160.73 160.73 0 0117.08 5.38 179.71 179.71 0 01-38.58 15.25 118.06 118.06 0 0021.5-20.63z"/><path fill="#ff9d33" d="M33.5 295.42a4.99 4.99 0 01-3.54-8.54l10-10a5 5 0 017.07 7.07l-10 10a4.98 4.98 0 01-3.53 1.47z"/><path fill="#ff6c6c" d="M468.5 276.45a4.99 4.99 0 01-3.54-8.53l10-10a5 5 0 017.08 7.07l-10 10a4.98 4.98 0 01-3.54 1.46zM107.7 82.82a4.99 4.99 0 01-3.53-8.54l10-10a5 5 0 017.07 7.07l-10 10a4.98 4.98 0 01-3.54 1.47z"/><path fill="#6c6cff" d="M320.67 48.18a4.99 4.99 0 01-3.54-1.46l-6.46-6.47-6.47 6.47a5 5 0 01-7.07-7.07l10-10a5 5 0 017.07 0l10 10a5 5 0 01-3.53 8.53zm82.99 406.49a4.99 4.99 0 01-3.53-1.47l-6.47-6.46-6.46 6.46a5 5 0 01-7.07-7.07l10-10a5 5 0 017.07 0l10 10a5 5 0 01-3.54 8.54z"/></svg>