<svg xmlns="http://www.w3.org/2000/svg" width="512" height="512"><linearGradient id="a" x1="256" x2="256" y1="598.193" y2="61.05" gradientUnits="userSpaceOnUse"><stop offset=".002" stop-color="#ffc599"/><stop offset=".992" stop-color="#ffe8dc" stop-opacity="0"/></linearGradient><path fill="url(#a)" d="M465.26 164.1c-14.86-17.3-24.65-38.34-29.22-60.7-3.88-18.95-12.1-35.4-24.96-48.26C352.3-3.63 218.8 34.57 112.92 140.46s-144.1 239.4-85.33 298.16c27.93 27.94 72.75 33.96 123.46 21.22 29.45-7.4 60.53-4.3 88.3 8.03 23.2 10.3 48.8 16.17 75.7 16.56 105.7 1.54 193.76-82.55 196.85-188.2 1.5-50.5-16.34-96.82-46.64-132.12z"/><path fill="#00c" d="M345.4 476.5H153.6c-12.2 0-22.1-9.9-22.1-22.1V78.6c0-12.2 9.9-22.1 22.1-22.1h191.8c12.2 0 22.1 9.9 22.1 22.1v375.8c0 12.2-9.9 22.1-22.1 22.1z" opacity=".1"/><path fill="#6c6cff" d="M379.94 145.1h-21.52V78.17h21.52c3.8 0 6.9 3.08 6.9 6.88v53.15c0 3.8-3.1 6.9-6.9 6.9zM115.9 213.94h24.68V78.18H115.9c-3.8 0-3.73 3.08-3.73 6.88v122c0 3.8-.06 6.88 3.74 6.88z"/><path fill="#ff9d33" d="M345.4 455.5H153.6c-12.2 0-22.1-9.9-22.1-22.1V57.6c0-12.2 9.9-22.1 22.1-22.1h191.8c12.2 0 22.1 9.9 22.1 22.1v375.8c0 12.2-9.9 22.1-22.1 22.1z"/><path fill="#fff" d="M131.5 87.63h236v315.74h-236z"/><circle cx="316.041" cy="322.987" r="36.513" fill="#ffd9d9"/><path fill="#ffd9d9" d="M204.06 200.58h-42.2c-2.76 0-5-2.24-5-5v-42.2c0-2.75 2.24-5 5-5h42.2c2.76 0 5 2.25 5 5v42.2c0 2.76-2.24 5-5 5z"/><path fill="#00c" d="M379.94 73.18h-7.45V57.6c0-14.94-12.17-27.1-27.1-27.1H153.6c-14.93 0-27.1 12.16-27.1 27.1v15.58h-10.6c-3.77 0-6.66 1.87-7.93 5.15-.8 2.08-.8 4.34-.8 6.54v122.38c0 2.2 0 4.46.8 6.54 1.27 3.26 4.16 5.14 7.94 5.14h10.6V433.4c0 14.94 12.17 27.1 27.1 27.1h191.8c14.93 0 27.1-12.16 27.1-27.1V179.1c0-2.77-2.25-5-5-5s-5 2.23-5 5v219.27h-197c-2.75 0-5 2.24-5 5s2.25 5 5 5h197v25.02c0 9.43-7.68 17.1-17.1 17.1H153.6c-9.42 0-17.1-7.67-17.1-17.1V92.62h226v52.46c0 2.75 2.23 5 5 5h12.44c6.56 0 11.9-5.34 11.9-11.9V85.07c0-6.55-5.34-11.88-11.9-11.88zM117.2 208.94c-.03-.56-.03-1.2-.03-1.7V84.88c0-.5 0-1.13.02-1.7h9.3v58.22c-1.9.7-3.24 2.52-3.24 4.66s1.35 3.96 3.25 4.67v58.2h-9.3zm19.3-126.3V57.6c0-9.43 7.68-17.1 17.1-17.1h191.8c9.42 0 17.1 7.67 17.1 17.1v25.03h-226zm245.33 55.57a1.9 1.9 0 01-1.9 1.9h-7.44V83.17h7.44c1.04 0 1.9.84 1.9 1.88z"/><path d="M269.76 66.5h-40.52c-2.76 0-5-2.24-5-5s2.24-5 5-5h40.52c2.76 0 5 2.24 5 5s-2.24 5-5 5zm-40.59 356v12.67c0 2.76 2.24 5 5 5h30.66c2.77 0 5-2.24 5-5V422.5c0-2.76-2.23-5-5-5h-30.66c-2.76 0-5 2.24-5 5zm99.33 11.33H312c-2.77 0-5-2.24-5-5s2.23-5 5-5h16.5c2.77 0 5 2.24 5 5s-2.23 5-5 5zm-141.5 0h-16.5c-2.77 0-5-2.24-5-5s2.23-5 5-5H187c2.77 0 5 2.24 5 5s-2.23 5-5 5zm51.75-173.75c-2.1 0-4.07-1.34-4.76-3.46l-14.26-44.1h-10.7c-2.75 0-5-2.23-5-5s2.25-5 5-5h14.34c2.17 0 4.1 1.4 4.76 3.47l15.37 47.54a4.99 4.99 0 01-3.2 6.3c-.52.17-1.04.24-1.55.24zm45.1 0h-52.83c-2.76 0-5-2.24-5-5s2.24-5 5-5h48.65l4.3-24.12h-52.95c-2.76 0-5-2.24-5-5s2.24-5 5-5h58.93c1.48 0 2.88.65 3.83 1.8a5.006 5.006 0 011.1 4.08l-6.1 34.12a4.99 4.99 0 01-4.93 4.12zm-42.12 30.72c-7.18 0-13-5.85-13-13.02s5.82-13 13-13 13 5.82 13 13-5.83 13-13 13zm0-16.04c-1.66 0-3 1.36-3 3.02s1.34 3 3 3 3-1.34 3-3-1.34-3-3-3zm37.33 16.04c-7.17 0-13-5.85-13-13.02s5.83-13 13-13 13 5.82 13 13-5.82 13-13 13zm0-16.04c-1.66 0-3 1.36-3 3.02s1.34 3 3 3 3-1.34 3-3-1.34-3-3-3z" fill="#ff4d4d"/><path fill="#00c" d="M179.33 125.47c-1.28 0-2.56-.5-3.53-1.47l-2.3-2.3-2.3 2.3a5.003 5.003 0 01-7.07 0 5.003 5.003 0 010-7.07l5.83-5.83c.94-.94 2.2-1.47 3.54-1.47s2.6.53 3.53 1.47l5.84 5.83a5.003 5.003 0 01-3.54 8.54z"/><path fill="#d9d9ff" d="M293 359.5h-84.5c-2.76 0-5-2.24-5-5s2.24-5 5-5H293c2.76 0 5 2.24 5 5s-2.24 5-5 5z"/><path fill="#ffab66" d="M325.5 142.86c-9.16 0-16.6-7.45-16.6-16.6s7.44-16.63 16.6-16.63 16.6 7.46 16.6 16.62-7.44 16.6-16.6 16.6zm0-23.23c-3.65 0-6.6 2.97-6.6 6.62s2.95 6.6 6.6 6.6 6.6-2.96 6.6-6.6-2.95-6.62-6.6-6.62zm11.6 34.84c-2.75 0-5-2.24-5-5a6.6 6.6 0 00-13.2 0c0 2.76-2.25 5-5 5s-5-2.24-5-5c0-9.16 7.44-16.6 16.6-16.6s16.6 7.44 16.6 16.6c0 2.76-2.23 5-5 5z"/><path fill="#d9d9ff" d="M293 154.47h-12.5c-2.76 0-5-2.24-5-5s2.24-5 5-5H293c2.76 0 5 2.24 5 5s-2.24 5-5 5zm0-17.22h-12.5c-2.76 0-5-2.24-5-5s2.24-5 5-5H293c2.76 0 5 2.24 5 5s-2.24 5-5 5zm0 242.38h-84.5c-2.76 0-5-2.24-5-5s2.24-5 5-5H293c2.76 0 5 2.23 5 5s-2.24 5-5 5z"/><path fill="#ff2c2c" d="M316.04 328H182.96c-2.76 0-5-2.25-5-5V174.5c0-2.77 2.24-5 5-5h133.08c2.76 0 5 2.23 5 5V323c0 2.75-2.24 5-5 5zm-128.08-10h123.08V179.5H187.96z"/><path fill="#ffab66" d="M334.75 223.1c-2.76 0-5-2.25-5-5v-21c0-2.77 2.24-5 5-5s5 2.23 5 5v21c0 2.75-2.24 5-5 5zm-170.5 82.28c-2.76 0-5-2.24-5-5v-21c0-2.76 2.24-5 5-5s5 2.24 5 5v21c0 2.76-2.24 5-5 5z"/><path fill="#6c6cff" d="M210.83 323c0 7.64 6.2 13.83 13.84 13.83h49.66c7.64 0 13.84-6.2 13.84-13.83 0-7.64-6.2-13.83-13.84-13.83h-49.66c-7.64 0-13.84 6.2-13.84 13.83z"/><path fill="#ff9d33" d="M422.5 195.4c-1.28 0-2.56-.5-3.54-1.46l-6.46-6.47-6.46 6.47a5.016 5.016 0 01-7.08 0 5.003 5.003 0 010-7.07l10-10a4.997 4.997 0 017.08 0l10 10c1.95 1.95 1.95 5.1 0 7.07-.98.97-2.26 1.46-3.54 1.46z"/><path fill="#ff6c6c" d="M446.5 255.5c-1.28 0-2.56-.5-3.54-1.46l-6.46-6.47-6.46 6.47a5.016 5.016 0 01-7.08 0 5.003 5.003 0 010-7.07l10-10a4.997 4.997 0 017.08 0l10 10c1.95 1.95 1.95 5.1 0 7.07-.98.97-2.26 1.46-3.54 1.46z"/><path fill="#ff9d33" d="M85.5 279.76a4.98 4.98 0 01-3.54-1.46l-6.46-6.46-6.46 6.46a5.016 5.016 0 01-7.08 0 5.003 5.003 0 010-7.07l10-10a5.016 5.016 0 017.08 0l10 10a5.003 5.003 0 010 7.07 4.98 4.98 0 01-3.54 1.46z"/><path fill="#ff6c6c" d="M70.5 153.67c-1.28 0-2.56-.5-3.54-1.47a5.003 5.003 0 010-7.07l10-10a5.016 5.016 0 017.08 0 5.003 5.003 0 010 7.07l-10 10a4.99 4.99 0 01-3.54 1.47z"/><path fill="#6c6cff" d="M407.5 354.5c-1.28 0-2.56-.5-3.54-1.46a5.016 5.016 0 010-7.08l10-10a5.016 5.016 0 017.08 0 5.016 5.016 0 010 7.08l-10 10c-.98.97-2.26 1.46-3.54 1.46z"/></svg>