<svg xmlns="http://www.w3.org/2000/svg" width="512" height="512"><linearGradient id="a" x1="514.782" x2="-122.413" y1="-43.218" y2="593.978" gradientUnits="userSpaceOnUse"><stop offset=".002" stop-color="#ffc599"/><stop offset=".992" stop-color="#ffe8dc" stop-opacity="0"/></linearGradient><path fill="url(#a)" d="M428.4 171.9c-8.35-8.37-18.02-14.94-28.7-19.78-28.03-12.7-50.06-35.4-62.44-63.56C314.34 36.44 262.28.06 201.7 0 122.4-.06 56.56 63.16 53.58 142.42c-1.28 33.92 8.85 65.42 26.87 90.97 22.87 32.43 28.82 73.77 17.02 111.68-16.77 53.85-10.92 104.9 20.97 136.8 55.9 55.88 170.6 31.8 256.2-53.8 85.58-85.6 109.67-200.3 53.78-256.2z"/><path fill="#00c" d="M475 103.94c-6.43 0-11.66 5.22-11.66 11.67v1.44H445c-2.75 0-5 2.24-5 5v13.34h-25.3v-10c0-2.76-2.24-5-5-5h-29.76c-1.16-9.46-9.2-16.8-18.97-16.8H150.4c-9.76 0-17.8 7.34-18.96 16.8h-29.76c-2.76 0-5 2.24-5 5v10h-24.7v-13.34c0-2.76-2.23-5-5-5H48.67v-1.43c0-6.44-5.23-11.66-11.67-11.66-6.45 0-11.68 5.22-11.68 11.67v58.2c0 6.46 5.23 11.68 11.67 11.68 6.43 0 11.66-5.22 11.66-11.67v-1.42H67c2.75 0 5-2.24 5-5v-13.34h24.68v10c0 2.76 2.24 5 5 5h5.5v103c0 5.5 4.48 10 10 10h14.1V450.9c0 7.4 8.03 11.98 14.4 8.25l105.16-61.66c3-1.76 6.7-1.76 9.67 0l105.17 61.65c6.38 3.73 14.4-.86 14.4-8.25V282.03h14.1c5.53 0 10-4.48 10-10v-103h5.5c2.77 0 5-2.23 5-5v-10h25.34v8.35c0 5.52 4.5 10 10 10h13.34v1.43c0 6.46 5.23 11.68 11.67 11.68 6.45 0 11.68-5.22 11.68-11.67v-58.2c0-6.44-5.23-11.66-11.67-11.66z" opacity=".1"/><path fill="#ff4d4d" d="M404.18 133.03v118c0 5.52-4.48 10-10 10h-277c-5.52 0-10-4.48-10-10v-118z"/><path fill="#ff2c2c" d="M107.18 133.03h297v30h-297z"/><path fill="#ff7300" d="M344.58 114.38h97.83v18.66H344.6zm-275.64 0h97.83v18.66H68.94z"/><path fill="#ff9d33" d="M409.68 148.04h-308c-2.76 0-5-2.24-5-5v-38.66c0-2.76 2.24-5 5-5h308c2.76 0 5 2.24 5 5v38.66c0 2.77-2.24 5-5 5zm53.66 3.34H450c-5.5 0-10-4.48-10-10v-40.34c0-2.76 2.25-5 5-5h18.34z"/><path fill="#ff7300" d="M475 164.48c-6.43 0-11.66-5.22-11.66-11.67V94.6c0-6.44 5.23-11.66 11.67-11.66 6.45 0 11.68 5.22 11.68 11.67v58.2c0 6.46-5.23 11.68-11.67 11.68z"/><path fill="#ff9d33" d="M48.66 151.38H67c2.75 0 5-2.24 5-5v-45.34c0-2.76-2.25-5-5-5H48.65z"/><path fill="#ff7300" d="M37 164.48c6.43 0 11.66-5.22 11.66-11.67V94.6c0-6.44-5.23-11.66-11.67-11.66-6.45 0-11.68 5.22-11.68 11.67v58.2c0 6.46 5.23 11.68 11.67 11.68z"/><path fill="#ff6c6c" d="M365.67 438.15L260.5 376.5a9.497 9.497 0 00-9.66 0l-105.16 61.65c-6.38 3.73-14.4-.86-14.4-8.25V101.72c0-10.57 8.56-19.13 19.13-19.13h210.55c10.56 0 19.12 8.55 19.12 19.12V429.9c0 7.4-8.02 11.98-14.4 8.25z"/><path d="M197.18 82.6v325.35l-28 16.4V82.6zm145 0v341.76l-28-16.4V82.58zm-46.91 0v314.26l-34.75-20.37c-3-1.76-6.7-1.76-9.68 0l-34.75 20.36V82.6z" fill="#ff4d4d"/><path fill="#00c" d="M475 77.94c-7.96 0-14.63 5.62-16.26 13.1H445c-5.5 0-10 4.5-10 10v8.34h-15.3v-5c0-5.52-4.5-10-10-10h-25.75c-3.12-9.73-12.24-16.8-22.98-16.8H184.4c-2.76 0-5 2.25-5 5s2.24 5 5 5h176.55c7.78 0 14.12 6.35 14.12 14.14V429.9c0 2.38-1.6 3.56-2.3 3.96-.68.4-2.5 1.18-4.57-.03l-105.16-61.65a14.592 14.592 0 00-14.73 0l-105.15 61.65c-2.06 1.2-3.9.42-4.58.03-.68-.4-2.3-1.58-2.3-3.96V101.72c0-7.8 6.35-14.13 14.14-14.13 2.77 0 5-2.25 5-5s-2.23-5-5-5c-10.74 0-19.86 7.05-22.97 16.78H101.7c-5.52 0-10 4.48-10 10v5H77v-8.34c0-5.5-4.48-10-10-10H53.27c-1.63-7.48-8.3-13.1-16.27-13.1-9.2 0-16.68 7.48-16.68 16.66v58.2c0 9.2 7.48 16.68 16.67 16.68 7.96 0 14.63-5.62 16.26-13.1H67c5.5 0 10-4.5 10-10v-8.34h14.68v5c0 5.52 4.48 10 10 10h.5v98c0 8.26 6.73 15 15 15h9.1V429.9c0 5.28 2.74 10 7.32 12.63 4.6 2.63 10.05 2.6 14.6-.07l105.17-61.65a4.56 4.56 0 014.6 0l105.17 61.66c2.3 1.35 4.84 2.02 7.37 2.02 2.5 0 4.98-.65 7.25-1.95 4.58-2.62 7.32-7.35 7.32-12.63V266.03h9.1c8.28 0 15-6.73 15-15v-69c0-2.75-2.23-5-5-5s-5 2.25-5 5v69c0 2.76-2.24 5-5 5h-9.1v-103h24.6c5.52 0 10-4.47 10-10v-5H435v3.35c0 8.27 6.74 15 15 15h8.73c1.64 7.48 8.3 13.1 16.28 13.1 9.2 0 16.67-7.48 16.67-16.67V94.6c0-9.18-7.47-16.66-16.66-16.66zM43.67 152.8c0 3.7-3 6.68-6.67 6.68s-6.68-3-6.68-6.67V94.6c0-3.67 3-6.66 6.67-6.66s6.66 3 6.66 6.66zM67 146.4H53.65v-45.34H67zm10-18.34v-8.66h14.68v8.66zm24.68-23.66h24.6v38.66h-24.6zm15.5 151.65c-2.76 0-5-2.24-5-5v-98h14.1v103zm267.9-113V104.4h24.6v38.66zm34.6-15v-8.65H435v8.66zM445 141.4v-40.34h13.34v45.34H450c-2.75 0-5-2.25-5-5zm36.68 11.43c0 3.7-3 6.68-6.67 6.68s-6.66-3-6.66-6.67V94.6c0-3.67 3-6.66 6.67-6.66s6.68 3 6.68 6.67z"/><path fill="#fee" d="M316.15 149.23c-14.03-14.03-36.78-14.03-50.8 0-5.35 5.34-14 5.34-19.34 0-14.02-14.03-36.77-14.03-50.8 0-14.03 14.03-14.03 36.78 0 50.8l51.5 51.52c4.96 4.95 13 4.95 17.94 0l51.5-51.5c14.04-14.04 14.04-36.8 0-50.82z"/><path fill="#6c6cff" d="M424.68 344.53a4.98 4.98 0 01-3.54-1.46l-6.46-6.47-6.47 6.47c-1.94 1.95-5.1 1.95-7.06 0a5.003 5.003 0 010-7.07l10-10a5.003 5.003 0 017.07 0l10 10a4.968 4.968 0 010 7.07c-.96.98-2.24 1.46-3.52 1.46z"/><path fill="#ff9d33" d="M78.94 221.53c-1.28 0-2.56-.5-3.53-1.46l-6.46-6.47-6.46 6.47a5.003 5.003 0 01-7.07 0 5.003 5.003 0 010-7.07l10-10a4.997 4.997 0 017.08 0l10 10a5.003 5.003 0 010 7.07c-.98.97-2.26 1.46-3.54 1.46z"/><path fill="#ff6c6c" d="M426.68 274.53a4.98 4.98 0 01-3.54-1.46 5.003 5.003 0 010-7.07l10-10a5.003 5.003 0 017.07 0 4.968 4.968 0 010 7.07l-10 10c-.96.98-2.24 1.46-3.52 1.46zm-87.1-208c-1.28 0-2.56-.5-3.54-1.47a5.003 5.003 0 010-7.07l10-10a4.985 4.985 0 017.07 0c1.96 1.94 1.96 5.1 0 7.06l-10 10c-.96.98-2.24 1.47-3.52 1.47zM66 327.53a4.98 4.98 0 01-3.54-1.46 5.003 5.003 0 010-7.07l10-10a5.016 5.016 0 017.08 0 5.003 5.003 0 010 7.07l-10 10a4.98 4.98 0 01-3.54 1.46z"/></svg>